<?xml version="1.0" encoding="UTF-8"?>
<svg version="1.1" xmlns="http://www.w3.org/2000/svg" width="54" height="54">
<path d="M0 0 C5.97862438 4.46845283 10.37480943 9.38290353 12.2578125 16.6875 C13.26670319 25.65069726 12.76022523 33.32547556 7.2578125 40.6875 C1.84603539 46.59668309 -2.91381094 50.1440216 -11.0390625 51.05859375 C-20.45905315 51.23974742 -27.00611124 50.02491664 -34.0625 43.5625 C-40.8906896 36.31825583 -42.29632917 30.09358831 -42.109375 20.2265625 C-41.1926731 11.3911165 -36.63798447 5.97041399 -30.12109375 0.28125 C-21.39060475 -5.56774756 -8.9226357 -5.18278509 0 0 Z " fill="#B39040" transform="translate(41.7421875,3.3125)"/>
<path d="M0 0 C1.98 0 3.96 0 6 0 C6 2.64 6 5.28 6 8 C8.64 8 11.28 8 14 8 C14 9.65 14 11.3 14 13 C11.36 13 8.72 13 6 13 C6 15.31 6 17.62 6 20 C4.35 20 2.7 20 1 20 C1 17.69 1 15.38 1 13 C-1.64 13 -4.28 13 -7 13 C-7 11.02 -7 9.04 -7 7 C-4.69 7 -2.38 7 0 7 C0 4.69 0 2.38 0 0 Z " fill="#FCFAF7" transform="translate(24,17)"/>
</svg>
