<svg width="26" height="24" viewBox="0 0 26 24" fill="none" xmlns="http://www.w3.org/2000/svg">
<path d="M16.2219 3C15.2701 3.06269 14.1577 3.64281 13.5094 4.39824C12.918 5.08355 12.4316 6.10142 12.6212 7.0906C13.6611 7.12141 14.7356 6.52748 15.3583 5.75929C15.9407 5.04424 16.3814 4.03274 16.2219 3Z" fill="black"/>
<path d="M19.9831 8.70343C19.0693 7.61225 17.785 6.979 16.5722 6.979C14.971 6.979 14.2937 7.70894 13.1813 7.70894C12.0343 7.70894 11.1629 6.98113 9.77816 6.98113C8.41802 6.98113 6.96974 7.77269 6.05145 9.1263C4.76049 11.0324 4.98141 14.6162 7.0735 17.6687C7.82219 18.761 8.82194 19.9892 10.1296 19.9999C11.2934 20.0105 11.6214 19.289 13.198 19.2816C14.7746 19.2731 15.0737 20.0094 16.2352 19.9977C17.544 19.9882 18.5984 18.6271 19.3471 17.5349C19.8838 16.7518 20.0835 16.3576 20.4997 15.4736C17.4726 14.3761 16.9872 10.277 19.9831 8.70343Z" fill="black"/>
</svg>
