<svg width="40" height="40" viewBox="0 0 40 40" fill="none" xmlns="http://www.w3.org/2000/svg">
<path d="M36 40H4C3.46957 40 2.96086 39.7893 2.58579 39.4142C2.21071 39.0391 2 38.5304 2 38V2C2 1.46957 2.21071 0.960859 2.58579 0.585786C2.96086 0.210714 3.46957 0 4 0H36C36.5304 0 37.0391 0.210714 37.4142 0.585786C37.7893 0.960859 38 1.46957 38 2V38C38 38.5304 37.7893 39.0391 37.4142 39.4142C37.0391 39.7893 36.5304 40 36 40ZM10 8V16H18V8H10ZM10 20V24H30V20H10ZM10 28V32H30V28H10ZM22 10V14H30V10H22Z" fill="#F4B700"/>
</svg>
