<svg width="12" height="4" viewBox="0 0 12 4" fill="none" xmlns="http://www.w3.org/2000/svg">
<path fill-rule="evenodd" clip-rule="evenodd" d="M3.16082 2.00004C3.16082 2.78395 2.52535 3.4194 1.74146 3.4194C0.957576 3.4194 0.322109 2.78395 0.322109 2.00004C0.322109 1.21613 0.957576 0.580688 1.74146 0.580688C2.52535 0.580688 3.16082 1.21613 3.16082 2.00004ZM7.41888 2.00004C7.41888 2.78395 6.78344 3.4194 5.99953 3.4194C5.21562 3.4194 4.58017 2.78395 4.58017 2.00004C4.58017 1.21613 5.21562 0.580688 5.99953 0.580688C6.78344 0.580688 7.41888 1.21613 7.41888 2.00004ZM11.6769 2.00004C11.6769 2.78395 11.0415 3.4194 10.2576 3.4194C9.47368 3.4194 8.83824 2.78395 8.83824 2.00004C8.83824 1.21613 9.47368 0.580688 10.2576 0.580688C11.0415 0.580688 11.6769 1.21613 11.6769 2.00004Z" fill="#5A5B78"/>
</svg>
