<svg width="24" height="24" viewBox="0 0 24 24" fill="none" xmlns="http://www.w3.org/2000/svg">
<g clip-path="url(#clip0_1_451)">
<path d="M3.6 7.2C2.64522 7.2 1.72955 6.82072 1.05442 6.14558C0.379285 5.47045 0 4.55478 0 3.6C0 2.64522 0.379285 1.72955 1.05442 1.05442C1.72955 0.379285 2.64522 0 3.6 0C4.55478 0 5.47045 0.379285 6.14558 1.05442C6.82072 1.72955 7.2 2.64522 7.2 3.6C7.2 4.55478 6.82072 5.47045 6.14558 6.14558C5.47045 6.82072 4.55478 7.2 3.6 7.2ZM20.4 7.2C19.4452 7.2 18.5295 6.82072 17.8544 6.14558C17.1793 5.47045 16.8 4.55478 16.8 3.6C16.8 2.64522 17.1793 1.72955 17.8544 1.05442C18.5295 0.379285 19.4452 0 20.4 0C21.3548 0 22.2705 0.379285 22.9456 1.05442C23.6207 1.72955 24 2.64522 24 3.6C24 4.55478 23.6207 5.47045 22.9456 6.14558C22.2705 6.82072 21.3548 7.2 20.4 7.2ZM20.4 24C19.4452 24 18.5295 23.6207 17.8544 22.9456C17.1793 22.2705 16.8 21.3548 16.8 20.4C16.8 19.4452 17.1793 18.5295 17.8544 17.8544C18.5295 17.1793 19.4452 16.8 20.4 16.8C21.3548 16.8 22.2705 17.1793 22.9456 17.8544C23.6207 18.5295 24 19.4452 24 20.4C24 21.3548 23.6207 22.2705 22.9456 22.9456C22.2705 23.6207 21.3548 24 20.4 24ZM3.6 24C2.64522 24 1.72955 23.6207 1.05442 22.9456C0.379285 22.2705 0 21.3548 0 20.4C0 19.4452 0.379285 18.5295 1.05442 17.8544C1.72955 17.1793 2.64522 16.8 3.6 16.8C4.55478 16.8 5.47045 17.1793 6.14558 17.8544C6.82072 18.5295 7.2 19.4452 7.2 20.4C7.2 21.3548 6.82072 22.2705 6.14558 22.9456C5.47045 23.6207 4.55478 24 3.6 24ZM8.4 2.4H15.6V4.8H8.4V2.4ZM8.4 19.2H15.6V21.6H8.4V19.2ZM2.4 8.4H4.8V15.6H2.4V8.4ZM19.2 8.4H21.6V15.6H19.2V8.4Z" fill="#986D8E"/>
</g>
<defs>
<clipPath id="clip0_1_451">
<rect width="24" height="24" fill="white"/>
</clipPath>
</defs>
</svg>
