<svg width="24" height="24" viewBox="0 0 24 24" fill="none" xmlns="http://www.w3.org/2000/svg">
<g clip-path="url(#clip0_1_438)">
<path d="M12 24C5.3724 24 0 18.6276 0 12C0 5.3724 5.3724 0 12 0C18.6276 0 24 5.3724 24 12C24 18.6276 18.6276 24 12 24ZM9.66 10.8C9.76395 10.2896 9.99901 9.81507 10.342 9.42309C10.685 9.03112 11.1242 8.7352 11.6163 8.56447C12.1084 8.39374 12.6365 8.35407 13.1486 8.44937C13.6606 8.54468 14.1391 8.77166 14.5368 9.108L16.578 7.7484C15.8771 6.98491 14.9712 6.43927 13.9686 6.17661C12.966 5.91394 11.909 5.94536 10.9238 6.26711C9.93854 6.58886 9.06671 7.18734 8.41237 7.99111C7.75803 8.79489 7.34882 9.76998 7.2336 10.8H6V13.2H7.2324C7.34742 14.2303 7.75658 15.2057 8.411 16.0097C9.06541 16.8137 9.93743 17.4123 10.9229 17.7341C11.9084 18.0559 12.9656 18.0872 13.9684 17.8243C14.9712 17.5614 15.8771 17.0155 16.578 16.2516L14.5368 14.8908C14.1392 15.2271 13.6608 15.4541 13.1488 15.5495C12.6368 15.6449 12.1088 15.6053 11.6167 15.4347C11.1246 15.2641 10.6855 14.9684 10.3424 14.5765C9.99929 14.1847 9.76412 13.7103 9.66 13.2L15.6 13.2012V10.8012H9.66V10.8Z" fill="#F6C142"/>
</g>
<defs>
<clipPath id="clip0_1_438">
<rect width="24" height="24" fill="white"/>
</clipPath>
</defs>
</svg>
