<svg width="20" height="20" viewBox="0 0 20 20" fill="none" xmlns="http://www.w3.org/2000/svg">
<path d="M3 2H18C18.5304 2 19.0391 2.21071 19.4142 2.58579C19.7893 2.96086 20 3.46957 20 4V7C20 7.53043 19.7893 8.03914 19.4142 8.41421C19.0391 8.78929 18.5304 9 18 9H16V12C16 13.0609 15.5786 14.0783 14.8284 14.8284C14.0783 15.5786 13.0609 16 12 16H6C4.93913 16 3.92172 15.5786 3.17157 14.8284C2.42143 14.0783 2 13.0609 2 12V3C2 2.73478 2.10536 2.48043 2.29289 2.29289C2.48043 2.10536 2.73478 2 3 2ZM16 4V7H18V4H16ZM0 18H18V20H0V18Z" fill="#F4B700"/>
</svg>
