<svg width="24" height="24" viewBox="0 0 24 24" fill="none" xmlns="http://www.w3.org/2000/svg">
<g clip-path="url(#clip0_1_4120)">
<path d="M9 22V13C9 12.4477 9.44772 12 10 12H14C14.5523 12 15 12.4477 15 13V22" stroke="#C33C29" stroke-width="2" stroke-linecap="round" stroke-linejoin="round"/>
<path d="M24 23.6654C24 24.0194 23.8595 24.3588 23.6095 24.6091C23.3594 24.8594 23.0203 25 22.6667 25H1.33333C0.979712 25 0.640573 24.8594 0.390525 24.6091C0.140476 24.3588 3.20947e-07 24.0194 3.20947e-07 23.6654V9.63915C-0.000140645 9.43578 0.0461562 9.23507 0.135355 9.05235C0.224553 8.86962 0.354294 8.70972 0.514667 8.58485L11.1813 0.281185C11.4154 0.0989436 11.7035 0 12 0C12.2965 0 12.5846 0.0989436 12.8187 0.281185L23.4853 8.58485C23.6457 8.70972 23.7754 8.86962 23.8646 9.05235C23.9538 9.23507 24.0001 9.43578 24 9.63915V23.6654ZM10.6667 14.3235V22.3309H13.3333V14.3235H10.6667Z" fill="#F6C142"/>
</g>
<defs>
<clipPath id="clip0_1_4120">
<rect width="24" height="24" fill="white"/>
</clipPath>
</defs>
</svg>
