<svg width="23" height="18" viewBox="0 0 23 18" fill="none" xmlns="http://www.w3.org/2000/svg">
<path d="M0 3.99702C3.19909 1.40534 7.19285 -0.00607102 11.31 1.96299e-05C15.595 1.96299e-05 19.53 1.49702 22.62 3.99702L20.735 6.33002C18.069 4.17055 14.7409 2.99467 11.31 3.00002C7.74 3.00002 4.46 4.24802 1.885 6.33002L0 3.99702ZM3.141 7.88702C5.4516 6.01502 8.33624 4.99556 11.31 5.00002C14.404 5.00002 17.246 6.08102 19.479 7.88602L17.594 10.22C15.8165 8.78023 13.5975 7.9963 11.31 8.00002C8.93 8.00002 6.744 8.83202 5.026 10.22L3.141 7.88602V7.88702ZM6.283 11.777C7.70485 10.6249 9.47998 9.99742 11.31 10C13.214 10 14.963 10.665 16.337 11.776L14.452 14.11C13.5632 13.3902 12.4537 12.9982 11.31 13C10.1663 12.9982 9.0568 13.3902 8.168 14.11L6.283 11.776V11.777ZM9.425 15.667C9.95805 15.2347 10.6237 14.9992 11.31 15C12.024 15 12.68 15.25 13.195 15.666L11.31 18L9.425 15.667Z" fill="#F4B700"/>
</svg>
