<svg width="12" height="12" viewBox="0 0 12 12" fill="none" xmlns="http://www.w3.org/2000/svg">
<path d="M9.15787 5.36842H3.94735V3C3.94735 1.86818 4.86816 0.947368 5.99998 0.947368C7.1318 0.947368 8.05261 1.86818 8.05261 3V3.94737C8.05261 4.20897 8.2647 4.42105 8.52629 4.42105C8.78789 4.42105 8.99998 4.20897 8.99998 3.94737V3C8.99998 1.3458 7.65418 0 5.99998 0C4.34578 0 2.99998 1.3458 2.99998 3V5.36842H2.84209C2.40608 5.36842 2.05261 5.72188 2.05261 6.15789V11.2105C2.05261 11.6465 2.40608 12 2.84209 12H9.15787C9.59388 12 9.94735 11.6465 9.94735 11.2105V6.15789C9.94735 5.72188 9.59388 5.36842 9.15787 5.36842ZM5.05261 8.05263C5.05261 7.5294 5.47675 7.10526 5.99998 7.10526C6.52318 7.10526 6.94735 7.5294 6.94735 8.05263C6.94735 8.40325 6.75677 8.70913 6.47366 8.87296V10.2632H5.5263V8.87296C5.24319 8.70913 5.05261 8.40325 5.05261 8.05263Z" fill="#E5BE90"/>
</svg>
