<svg width="37" height="23" viewBox="0 0 37 23" fill="none" xmlns="http://www.w3.org/2000/svg">
<g clip-path="url(#clip0_1_2452)">
<path fill-rule="evenodd" clip-rule="evenodd" d="M13.4971 20.38H23.3423V2.60852H13.4971V20.38Z" fill="#FF5F00"/>
<path fill-rule="evenodd" clip-rule="evenodd" d="M14.1219 11.4943C14.1219 7.88894 15.8025 4.67786 18.4195 2.60861C16.5054 1.09506 14.0907 0.192139 11.4659 0.192139C5.25212 0.192139 0.215088 5.25239 0.215088 11.4943C0.215088 17.7363 5.25212 22.7965 11.4659 22.7965C14.0907 22.7965 16.5054 21.8936 18.4195 20.3801C15.8025 18.3105 14.1219 15.0997 14.1219 11.4943Z" fill="#EB001B"/>
<path fill-rule="evenodd" clip-rule="evenodd" d="M36.2723 18.4978V18.0592H36.1582L36.0272 18.3609L35.896 18.0592H35.7819V18.4978H35.8622V18.1669L35.9854 18.4523H36.0688L36.1919 18.1663V18.4978H36.2723ZM35.55 18.4978V18.1339H35.6962V18.0599H35.3243V18.1339H35.4703V18.4978H35.55ZM36.6236 11.4942C36.6236 17.7362 31.5862 22.7964 25.3728 22.7964C22.748 22.7964 20.3329 21.8935 18.4192 20.3799C21.0362 18.3107 22.7167 15.0996 22.7167 11.4942C22.7167 7.88913 21.0362 4.67805 18.4192 2.60849C20.3329 1.09494 22.748 0.192017 25.3728 0.192017C31.5862 0.192017 36.6236 5.25226 36.6236 11.4942Z" fill="#F79E1B"/>
</g>
<defs>
<clipPath id="clip0_1_2452">
<rect width="36.7852" height="22.637" fill="white" transform="translate(0.214966 0.192139)"/>
</clipPath>
</defs>
</svg>
