<svg width="38" height="39" viewBox="0 0 38 39" fill="none" xmlns="http://www.w3.org/2000/svg">
<g clip-path="url(#clip0_1_2472)">
<path d="M27.5501 3C33.3223 3 38.0001 7.59459 38.0001 14.027C38.0001 26.8919 23.7501 34.2432 19.0001 37C15.2419 34.8185 5.54046 29.7644 1.64926 21.3784H10.5755L12.3501 18.5187L18.0501 27.7079L21.9755 21.3784H28.5001V17.7027H19.8247L18.0501 20.5624L12.3501 11.3732L8.42466 17.7027H0.399061C0.140661 16.532 6.10352e-05 15.3062 6.10352e-05 14.027C6.10352e-05 7.59459 4.75006 3 10.4501 3C13.9841 3 17.1001 4.83784 19.0001 6.67568C20.9001 4.83784 24.0161 3 27.5501 3Z" fill="#986D8E"/>
</g>
<defs>
<clipPath id="clip0_1_2472">
<rect width="38" height="38" fill="white" transform="translate(6.10352e-05 0.800781)"/>
</clipPath>
</defs>
</svg>
