<svg width="28" height="26" viewBox="0 0 28 26" fill="none" xmlns="http://www.w3.org/2000/svg">
<path d="M11.2 26H1.4C1.0287 26 0.672601 25.8478 0.41005 25.5769C0.1475 25.306 0 24.9386 0 24.5556V1.44444C0 1.06135 0.1475 0.693954 0.41005 0.423068C0.672601 0.152182 1.0287 0 1.4 0H11.2C11.2 0.766181 11.495 1.50098 12.0201 2.04275C12.5452 2.58452 13.2574 2.88889 14 2.88889C14.7426 2.88889 15.4548 2.58452 15.9799 2.04275C16.505 1.50098 16.8 0.766181 16.8 0H26.6C26.9713 0 27.3274 0.152182 27.59 0.423068C27.8525 0.693954 28 1.06135 28 1.44444V24.5556C28 24.9386 27.8525 25.306 27.59 25.5769C27.3274 25.8478 26.9713 26 26.6 26H16.8C16.8 25.2338 16.505 24.499 15.9799 23.9572C15.4548 23.4155 14.7426 23.1111 14 23.1111C13.2574 23.1111 12.5452 23.4155 12.0201 23.9572C11.495 24.499 11.2 25.2338 11.2 26ZM5.6 7.22222V18.7778H8.4V7.22222H5.6ZM19.6 7.22222V18.7778H22.4V7.22222H19.6Z" fill="white"/>
</svg>
