<svg width="24" height="24" viewBox="0 0 24 24" fill="none" xmlns="http://www.w3.org/2000/svg">
<g clip-path="url(#clip0_1_3655)">
<path d="M4.0476 3.01201C6.23964 1.06727 9.06963 -0.00460256 12 1.48562e-05C18.6276 1.48562e-05 24 5.37241 24 12C24.0039 14.4527 23.2527 16.8471 21.8484 18.858L18.6 12H21.6C21.6 10.0912 21.031 8.22578 19.9657 6.64195C18.9004 5.05812 17.3871 3.82781 15.6192 3.1082C13.8513 2.38859 11.909 2.21234 10.0404 2.60196C8.17181 2.99159 6.4618 3.92941 5.1288 5.29561L4.0488 3.01321L4.0476 3.01201ZM19.9524 20.988C17.7603 22.9327 14.9304 24.0046 12 24C5.3724 24 0 18.6276 0 12C0 9.45 0.795599 7.08601 2.1516 5.14201L5.4 12H2.4C2.39996 13.9088 2.96894 15.7742 4.03425 17.3581C5.09956 18.9419 6.61284 20.1722 8.38076 20.8918C10.1487 21.6114 12.091 21.7877 13.9596 21.398C15.8282 21.0084 17.5382 20.0706 18.8712 18.7044L19.9512 20.9868L19.9524 20.988ZM13.6968 15.3936L10.3032 12L6.9084 15.3936L5.2116 13.6968L10.3032 8.6064L13.6968 12L17.0916 8.6064L18.7884 10.3032L13.6968 15.3936Z" fill="#986D8E"/>
</g>
<defs>
<clipPath id="clip0_1_3655">
<rect width="24" height="24" fill="white"/>
</clipPath>
</defs>
</svg>
