<svg width="33" height="33" viewBox="0 0 33 33" fill="none" xmlns="http://www.w3.org/2000/svg">
<g clip-path="url(#clip0_1_2485)">
<path d="M24.8184 10.1234H28.9093L33.0002 15.6982V23.868H30.2252C30.0631 25.0147 29.496 26.064 28.628 26.823C27.76 27.5821 26.6494 28 25.5002 28C24.3511 28 23.2405 27.5821 22.3725 26.823C21.5045 26.064 20.9374 25.0147 20.7752 23.868H13.8616C13.6995 25.0147 13.1324 26.064 12.2644 26.823C11.3963 27.5821 10.2858 28 9.13661 28C7.98745 28 6.87687 27.5821 6.00886 26.823C5.14086 26.064 4.57372 25.0147 4.41161 23.868H3.00024V7.37446C3.00024 7.00993 3.14391 6.66033 3.39964 6.40257C3.65538 6.14481 4.00222 6 4.36388 6H23.4548C23.8164 6 24.1633 6.14481 24.419 6.40257C24.6748 6.66033 24.8184 7.00993 24.8184 7.37446V10.1234ZM24.8184 12.8723V16.9957H30.273V16.604L27.5348 12.8723H24.8184Z" fill="#F4B700"/>
</g>
<defs>
<clipPath id="clip0_1_2485">
<rect width="32.0926" height="32.0926" fill="white" transform="translate(0.907471 0.908447)"/>
</clipPath>
</defs>
</svg>
