<svg width="30" height="30" viewBox="0 0 30 30" fill="none" xmlns="http://www.w3.org/2000/svg">
<g clip-path="url(#clip0_1_2044)">
<path d="M-0.3 0H30.3C30.7509 0 31.1833 0.175595 31.5021 0.488155C31.8209 0.800716 32 1.22464 32 1.66667V28.3333C32 28.7754 31.8209 29.1993 31.5021 29.5118C31.1833 29.8244 30.7509 30 30.3 30H-0.3C-0.750868 30 -1.18327 29.8244 -1.50208 29.5118C-1.82089 29.1993 -2 28.7754 -2 28.3333V1.66667C-2 1.22464 -1.82089 0.800716 -1.50208 0.488155C-1.18327 0.175595 -0.750868 0 -0.3 0ZM20.1 6.66667V10H13.3V13.3333H20.1V16.6667L26.05 11.6667L20.1 6.66667ZM9.9 23.3333V20H16.7V16.6667H9.9V13.3333L3.95 18.3333L9.9 23.3333Z" fill="#03053D"/>
</g>
<defs>
<clipPath id="clip0_1_2044">
<rect width="30" height="30" fill="white"/>
</clipPath>
</defs>
</svg>
