<svg width="32" height="11" viewBox="0 0 32 11" fill="none" xmlns="http://www.w3.org/2000/svg">
<path d="M9.39305 0.894897L7.11738 7.68206C7.11738 7.68206 6.53936 4.81103 6.48216 4.45053C5.18661 1.49458 3.2749 1.65923 3.2749 1.65923L5.52804 10.4274V10.4257H8.26735L12.0552 0.894897H9.39305Z" fill="white"/>
<path d="M11.5627 10.4269H14.0507L15.5551 0.894409H13.036L11.5627 10.4269Z" fill="white"/>
<path d="M29.1703 0.894409H26.5524L22.4707 10.4269H24.9422L25.4518 9.06552H28.5681L28.8332 10.4269H31.0976L29.1703 0.894409ZM26.1416 7.2448L27.4961 3.64238L28.205 7.2448H26.1416Z" fill="white"/>
<path d="M19.0847 3.67272C19.0847 3.14756 19.5163 2.75673 20.7538 2.75673C21.558 2.75673 22.4792 3.34081 22.4792 3.34081L22.883 1.33985C22.883 1.33985 21.7062 0.893555 20.551 0.893555C17.9348 0.893555 16.5855 2.14492 16.5855 3.72905C16.5855 6.59401 20.0337 6.20144 20.0337 7.67291C20.0337 7.92509 19.8335 8.50831 18.3975 8.50831C16.9573 8.50831 16.0066 7.98056 16.0066 7.98056L15.5776 9.90093C15.5776 9.90093 16.4988 10.4261 18.2788 10.4261C20.0631 10.4261 22.5381 9.09153 22.5381 7.17462C22.5381 4.86862 19.0847 4.70223 19.0847 3.67272Z" fill="white"/>
<path d="M6.81651 6.04732L5.97938 1.93274C5.97938 1.93274 5.60068 1.04101 4.61623 1.04101C3.63178 1.04101 0.768555 1.04101 0.768555 1.04101C0.768555 1.04101 5.67434 2.48996 6.81651 6.04732Z" fill="#FFC107"/>
</svg>
