<svg width="31" height="11" viewBox="0 0 31 11" fill="none" xmlns="http://www.w3.org/2000/svg">
<path d="M8.8308 0.894897L6.55512 7.68206C6.55512 7.68206 5.9771 4.81103 5.91991 4.45053C4.62435 1.49458 2.71265 1.65923 2.71265 1.65923L4.96579 10.4274V10.4257H7.70509L11.493 0.894897H8.8308Z" fill="#5A5B78"/>
<path d="M11.0007 10.4269H13.4887L14.9931 0.894409H12.4739L11.0007 10.4269Z" fill="#5A5B78"/>
<path d="M28.6083 0.894409H25.9903L21.9087 10.4269H24.3802L24.8898 9.06552H28.006L28.2712 10.4269H30.5356L28.6083 0.894409ZM25.5796 7.2448L26.9341 3.64238L27.6429 7.2448H25.5796Z" fill="#5A5B78"/>
<path d="M18.5227 3.67272C18.5227 3.14756 18.9543 2.75673 20.1918 2.75673C20.996 2.75673 21.9172 3.34081 21.9172 3.34081L22.321 1.33985C22.321 1.33985 21.1442 0.893555 19.989 0.893555C17.3728 0.893555 16.0235 2.14492 16.0235 3.72905C16.0235 6.59401 19.4716 6.20144 19.4716 7.67291C19.4716 7.92509 19.2715 8.50831 17.8355 8.50831C16.3952 8.50831 15.4446 7.98056 15.4446 7.98056L15.0156 9.90093C15.0156 9.90093 15.9368 10.4261 17.7168 10.4261C19.5011 10.4261 21.9761 9.09153 21.9761 7.17462C21.9761 4.86862 18.5227 4.70223 18.5227 3.67272Z" fill="#5A5B78"/>
<path d="M6.25401 6.04732L5.41688 1.93274C5.41688 1.93274 5.03818 1.04101 4.05373 1.04101C3.06928 1.04101 0.206055 1.04101 0.206055 1.04101C0.206055 1.04101 5.11184 2.48996 6.25401 6.04732Z" fill="#FFC107"/>
</svg>
